<?xml version="1.0" encoding="utf-8"?>
<!-- Generator: Adobe Illustrator 23.1.1, SVG Export Plug-In . SVG Version: 6.00 Build 0)  -->
<svg version="1.1" id="Calque_1" xmlns="http://www.w3.org/2000/svg" xmlns:xlink="http://www.w3.org/1999/xlink" x="0px" y="0px"
	 viewBox="0 0 28.74 40.75" style="enable-background:new 0 0 28.74 40.75;" xml:space="preserve">
<style type="text/css">
	.st0{fill:#ED6A24;}
</style>
<path id="Path" class="st0" d="M27.96,27.01l-1.99-1.7c0,0-7.15,7.12-9.93,10.17c0.11-10.7,0-34.59,0-34.59h-2.38
	c0,0,0.09,23.89,0,34.59C10.49,32.44,3.35,25.32,3.35,25.32l-2.38,1.7l13.9,12.89L27.96,27.01z"/>
<path id="Path_1_" class="st0" d="M27.96,27.01l-1.99-1.7c0,0-7.15,7.12-9.93,10.17c0.11-10.7,0-34.59,0-34.59h-2.38
	c0,0,0.09,23.89,0,34.59C10.49,32.44,3.35,25.32,3.35,25.32l-2.38,1.7l13.9,12.89L27.96,27.01z"/>
</svg>
